<?xml version="1.0" encoding="UTF-8" standalone="no"?>
<svg
   xmlns:dc="http://purl.org/dc/elements/1.1/"
   xmlns:cc="http://creativecommons.org/ns#"
   xmlns:rdf="http://www.w3.org/1999/02/22-rdf-syntax-ns#"
   xmlns:svg="http://www.w3.org/2000/svg"
   xmlns="http://www.w3.org/2000/svg"
   xmlns:xlink="http://www.w3.org/1999/xlink"
   id="svg2"
   height="450"
   width="450"
   version="1.0">
   <path style="fill:#000000;fill-opacity:1" vector-effect="non-scaling-stroke" d="
M135,45
L139.041537156835,45.978219897149835
C143.08307431366998,46.956439794299676,151.16614862733994,48.912879588599345,153.00464126831693,47.00338027738894
C154.84313390929393,45.09388096617854,150.43704487757793,39.31844254945805,151.71441921870735,36.30621834600223
C152.99179355983676,33.29399414254642,159.9526312738116,33.044984152355276,161.04054128302465,34.94868862341761
C162.12845129223768,36.85239309447994,157.34343359668893,40.908812026795765,159.52452209872453,42.942816333101746
C161.7056106007601,44.97682063940772,170.85280530038006,44.98841031970386,175.42640265019,44.99420515985193
L180,45 
L179.84303998949395,49.187674257442474C179.6860799789879,53.375348514884955,179.3721599579758,61.75069702976992,181.87693804747607,63.61895926795062
C184.38171613697634,65.48722150613133,189.70519233698892,60.84839746760779,192.8764614317524,62.46910912140007
C196.04773052651583,64.08982077519236,197.0667925160302,71.97006812130049,193.6632526692715,73.39729479276332
C190.2597128225127,74.82452146422615,182.4335711394809,69.7987274610437,179.41926205522347,71.49034154980892
C176.40495297096604,73.18195563857415,178.202476485483,81.59097781928708,179.10123824274152,85.79548890964354
L180,90
L175.66184866842988,90.06449101452789
C171.32369733685974,90.12898202905579,162.64739467371948,90.25796405811157,160.55198569168178,92.74693377326433
C158.45657670964405,95.2359034884171,162.9420614087089,100.08486088966684,161.33832526212586,102.50738047487148
C159.73458911554283,104.92990006007614,152.04163212331198,104.9259818292357,150.70642508098132,102.51062300466178
C149.37121803865068,100.09526418008785,154.39376094622028,95.26846476178046,152.83564842437343,92.78145416204792
C151.27753590252658,90.29444356231538,143.13876795126328,90.14722178115768,139.06938397563164,90.07361089057883
L135,90
L135.62048746463466,85.92623858393002C136.24097492926933,81.85247716786004,137.48194985853866,73.70495433572007,135.96491535541273,72.07614294410801
C134.44788085228677,70.44733155249592,130.1728369167656,75.33723160141174,127.52386110977578,73.7446365005256
C124.87488530278597,72.15204139963949,123.85197762432752,64.07695114895141,125.23286998958258,62.092438342328215
C126.61376235483765,60.107925535705,130.3984547638062,64.21399017314667,132.42694310616136,62.38034669010278
C134.45543144851652,60.54670320705889,134.72771572425825,52.77335160352944,134.86385786212912,48.88667580176472
L135,45"></path>
</svg>
